<svg xmlns="http://www.w3.org/2000/svg" width="256" height="256" viewBox="0 0 256 256"><path d="M0 0h256v256H0zm55.04 20.736-.608.162c-2.496.685-4.934 1.698-7.218 2.913a49 49 0 0 1-.759.391c-4.612 2.356-8.913 5.776-12.278 9.719l-.31.353c-5.607 6.431-9.071 14.574-10.443 22.942l-.046.271a15 15 0 0 0-.21 3.057h-.256c-.006 11.171-.011 22.342-.017 38.016v.569l-.005 18.84-.008 19.042-.006 13.894v.289l-.002 8.812v.28l-.004 8.896q-.004 4.611-.003 9.222.001 2.655-.003 5.31-.002 1.778-.001 3.555.001 1.01-.002 2.021c-.009 3.76.094 7.438.884 11.13q.085.413.155.83c.2 1.169.494 2.288.847 3.418q.113.37.22.744c1.588 5.388 4.363 10.665 7.926 15.008l.167.204c1.742 2.115 3.611 4.239 5.771 5.934.352.278.69.57 1.03.863 2.497 2.075 5.325 3.788 8.264 5.16l.296.14a41.8 41.8 0 0 0 9.527 3.156l.356.072q.37.071.742.135.48.083.958.177c2.316.421 4.668.342 7.013.336q.99-.001 1.978.001 1.73.002 3.461 0 2.573-.003 5.147-.001 4.331.002 8.662-.001a14973 14973 0 0 1 11.287-.002h6.34l9.078-.002 4.627-.002q9.174-.004 18.347-.003l1.159.001h.289l3.175.001h.287l15.929-.002h.271l1.889-.001 7.508-.001q4.839.001 9.678-.002 2.557-.002 5.114-.001 1.71.001 3.421-.002.973-.002 1.946-.001c11.678.013 22.878-3.466 31.575-11.53a28 28 0 0 1 .816-.721 26.4 26.4 0 0 0 2.816-2.888l.314-.361c3.877-4.486 6.702-9.665 8.646-15.255l.199-.553c.989-2.831 1.895-6.165 1.857-9.175l-.004-.368-.002-.272h.256a118667 118667 0 0 0 .029-57.444q.002-6.962.007-13.925v-.302l.004-4.821.008-13.898v-.289l.002-8.818v-.28q.001-4.449.006-8.897.005-4.613.004-9.226-.001-2.655.004-5.311.003-1.778.001-3.558-.002-1.01.002-2.021c.013-3.945-.111-7.9-1.024-11.758l-.064-.277a47.6 47.6 0 0 0-3.584-10.091l-.161-.333a39.4 39.4 0 0 0-4.575-7.22l-.297-.374a70 70 0 0 0-.856-1.034l-.314-.386c-.826-1.004-1.722-1.933-2.639-2.854l-.353-.356a30 30 0 0 0-2.455-2.163l-.696-.6c-1.648-1.374-3.453-2.571-5.32-3.624l-.31-.177a49.4 49.4 0 0 0-10.825-4.559l-.283-.082c-4.128-1.162-8.374-1.444-12.638-1.424q-.99.001-1.98-.002-1.727-.004-3.454-.001-2.568.005-5.137 0-4.325-.005-8.649-.001a7717 7717 0 0 1-9.104.003l-2.17-.001-6.064-.001h-.279q-4.392 0-8.784.003l-.287.001-4.619.003q-9.159.006-18.317.003l-4.618-.002h-.287q-4.388-.002-8.777-.001h-.279l-8.765.003-7.764-.001q-4.831-.003-9.662.003-2.55.004-5.101.001-1.709-.002-3.418.003-.97.003-1.94 0c-4.139-.013-8.258.229-12.261 1.365" fill="none"/><path d="M94.052 57.059q.703.002 1.405.001 1.359 0 2.719.003 1.575.003 3.15.003l8.305.008 18.752.016v51.968c15.662-.015 15.662-.015 31.325-.035l4.447-.002q1.486-.001 2.971-.004 1.715-.004 3.429-.003.876.001 1.753-.003.794-.003 1.589-.001.285.001.571-.002c1.756-.011 3.474.181 5.09.912l.311.137c3.053 1.375 5.524 3.905 6.731 7.043.812 2.232.864 4.364.853 6.722l.001 1.044q.001 1.088-.004 2.176a417 417 0 0 0-.002 2.5q.002 1.214-.002 2.428v1.023c.004 4.289-.941 7.614-3.977 10.76-2.171 2.174-5.335 3.463-8.392 3.481l-.816-.002-.596.001q-.816.001-1.631-.002-.894-.002-1.789-.001-1.735 0-3.47-.003-2.007-.003-4.015-.003-5.298-.003-10.595-.008l-23.911-.016v51.712l-18.64.032-5.876.014-3.49.003q-1.161.001-2.324.005-1.343.005-2.687.004-.685-.001-1.371.003c-2.08.011-4.031-.106-6.061-.573l-.332-.074c-4.545-1.021-8.559-3.425-11.828-6.71l-.192-.191c-1.651-1.66-2.962-3.623-4.032-5.697l-.229-.433c-.508-1.019-.895-2.075-1.267-3.151l-.143-.402c-.866-2.589-.997-5.2-.981-7.91q.003-.71.002-1.423 0-1.373.005-2.747.005-1.593.004-3.185.005-4.194.017-8.389l.032-18.952h57.344V116.48h-57.6l-.024-18.456-.011-5.819-.002-3.455q-.001-1.151-.004-2.301-.004-1.33-.003-2.66.001-.679-.003-1.357c-.029-7.212 2.377-13.435 7.462-18.593 3.012-2.998 6.929-5.099 11.032-6.152l.365-.094c2.204-.534 4.377-.542 6.631-.535" fill="#0d1923"/><path d="m159.744 61.312.481.121c2.562.682 4.947 1.744 7.071 3.335l.329.246c1.411 1.095 2.687 2.296 3.767 3.721l.258.329c2.725 3.588 4.029 7.848 4.006 12.319l-.001.287c-.009 2.252-.311 4.271-1.063 6.393l-.147.425c-1.916 5.25-5.903 9.28-10.893 11.679-2.273.989-4.784 1.666-7.264 1.72l-.315.01c-5.774.172-10.939-1.857-15.161-5.775a15.5 15.5 0 0 1-1.421-1.531l-.289-.347c-1.79-2.224-2.93-4.706-3.783-7.412l-.113-.351c-.499-1.651-.608-3.341-.608-5.057l-.001-.275c.002-1.759.245-3.414.697-5.117l.07-.272c.847-3.2 2.612-6.421 5.05-8.688l.32-.32.32-.32.188-.198c.566-.587 1.171-1.069 1.837-1.538l.31-.221c2.161-1.524 4.45-2.506 7.01-3.163l.309-.082c2.905-.748 6.148-.705 9.035.082" fill="#fe583e"/></svg>