<?xml version="1.0" encoding="UTF-8"?>
<svg version="1.1" xmlns="http://www.w3.org/2000/svg" width="64" height="64">
<path d="M0 0 C1.65 0 3.3 0 5 0 C5 0.99 5 1.98 5 3 C10.28 3 15.56 3 21 3 C21 2.01 21 1.02 21 0 C22.65 0 24.3 0 26 0 C26.495 1.485 26.495 1.485 27 3 C28.051875 3.04125 29.10375 3.0825 30.1875 3.125 C35.22500819 4.28114942 36.11225169 5.83824509 39 10 C40.4759184 12.9518368 40.20374234 15.96433145 40.23828125 19.203125 C40.246353 19.91853455 40.25442474 20.63394409 40.26274109 21.37103271 C40.27657958 22.88746724 40.2873028 24.40393288 40.29516602 25.92041016 C40.31233257 28.22749894 40.35621124 30.53313682 40.40039062 32.83984375 C40.41052212 34.31509365 40.4190368 35.79035572 40.42578125 37.265625 C40.44328934 37.9502179 40.46079742 38.63481079 40.47883606 39.34014893 C40.45636443 44.36188062 39.22257601 47.18784024 36 51 C31.91650302 54.36798394 27.94668783 54.45374502 22.84765625 54.43359375 C21.68102699 54.44145653 21.68102699 54.44145653 20.49082947 54.44947815 C18.85107615 54.45588187 17.2112768 54.45458274 15.5715332 54.44604492 C13.07354257 54.43753761 10.57784298 54.46631126 8.08007812 54.49804688 C6.48177151 54.49965927 4.88346088 54.49908062 3.28515625 54.49609375 C2.17395164 54.51294472 2.17395164 54.51294472 1.04029846 54.53013611 C-4.12418859 54.4613334 -7.08333331 53.34716508 -11 50 C-15.49153618 44.45456393 -14.48463053 37.62176944 -14.44604492 30.85327148 C-14.43753725 28.57248597 -14.46631465 26.29421018 -14.49804688 24.01367188 C-14.49965932 22.55208408 -14.49908052 21.09049188 -14.49609375 19.62890625 C-14.49794678 18.30963135 -14.4997998 16.99035645 -14.50170898 15.63110352 C-13.81001577 10.62499495 -11.64733771 7.59419778 -8.0625 4.125 C-5.55059261 2.7548687 -3.81972723 2.76502273 -1 3 C-0.67 2.01 -0.34 1.02 0 0 Z M-7 12 C-7.33 13.32 -7.66 14.64 -8 16 C5.86 16 19.72 16 34 16 C32.62111098 10.94723152 32.62111098 10.94723152 29.375 9.6875 C28.59125 9.460625 27.8075 9.23375 27 9 C26.67 10.32 26.34 11.64 26 13 C24.35 13.33 22.7 13.66 21 14 C21 12.35 21 10.7 21 9 C15.72 9 10.44 9 5 9 C5 10.65 5 12.3 5 14 C3.35 13.67 1.7 13.34 0 13 C-0.33 11.68 -0.66 10.36 -1 9 C-3.84613268 9 -4.91932384 10.1206796 -7 12 Z M-8 22 C-9.49071198 39.76393202 -9.49071198 39.76393202 -6 46 C-2.61169563 48.45944162 0.72850256 48.25801372 4.8125 48.265625 C5.46323486 48.26753845 6.11396973 48.2694519 6.78442383 48.27142334 C8.15609119 48.27278037 9.5277716 48.26911765 10.89941406 48.26074219 C12.99313336 48.25003512 15.08599474 48.26065309 17.1796875 48.2734375 C18.51562688 48.27211582 19.85156574 48.26955325 21.1875 48.265625 C22.39792969 48.26336914 23.60835937 48.26111328 24.85546875 48.25878906 C27.89382525 48.00873798 29.55213092 47.77681531 32 46 C35.49071198 39.76393202 35.49071198 39.76393202 34 22 C20.14 22 6.28 22 -8 22 Z " fill="#000000" transform="translate(19,5)"/>
<path d="M0 0 C1.65 0 3.3 0 5 0 C5.33 1.65 5.66 3.3 6 5 C4.34385343 5.38218767 2.67542976 5.71395102 1 6 C0 5 0 5 -0.0625 2.4375 C-0.041875 1.633125 -0.02125 0.82875 0 0 Z " fill="#000000" transform="translate(29,32)"/>
<path d="M0 0 C1.65 0.33 3.3 0.66 5 1 C4.67 2.65 4.34 4.3 4 6 C2.35 5.67 0.7 5.34 -1 5 C-0.67 3.35 -0.34 1.7 0 0 Z " fill="#000000" transform="translate(30,42)"/>
<path d="M0 0 C2.0625 0.4375 2.0625 0.4375 4 1 C4.5625 2.9375 4.5625 2.9375 5 5 C4 6 4 6 1.4375 6.0625 C0.2309375 6.0315625 0.2309375 6.0315625 -1 6 C-1.042721 4.33388095 -1.04063832 2.66617115 -1 1 C-0.67 0.67 -0.34 0.34 0 0 Z " fill="#000000" transform="translate(41,42)"/>
<path d="M0 0 C2.125 0.375 2.125 0.375 4 1 C4 2.65 4 4.3 4 6 C2.35 6 0.7 6 -1 6 C-1.625 4.125 -1.625 4.125 -2 2 C-1.34 1.34 -0.68 0.68 0 0 Z " fill="#000000" transform="translate(20,42)"/>
<path d="M0 0 C1.65 0 3.3 0 5 0 C5.625 1.875 5.625 1.875 6 4 C5.34 4.66 4.68 5.32 4 6 C1.875 5.625 1.875 5.625 0 5 C0 3.35 0 1.7 0 0 Z " fill="#000000" transform="translate(40,32)"/>
<path d="M0 0 C1.65 0 3.3 0 5 0 C5 1.65 5 3.3 5 5 C3.125 5.625 3.125 5.625 1 6 C0.34 5.34 -0.32 4.68 -1 4 C-0.625 1.875 -0.625 1.875 0 0 Z " fill="#000000" transform="translate(19,32)"/>
</svg>
