<svg xmlns="http://www.w3.org/2000/svg" width="64" height="64"><path d="M19 5h5v3h16V5h5l1 3 3.313.875C53.53 10.162 54.678 11.341 57 15c1.691 5.074 1.225 10.4 1.24 15.714.01 2.08.04 4.16.072 6.241.007 1.334.012 2.668.016 4.002l.028 3.656c-.487 4.629-1.883 8.052-5.356 11.2-5.615 3.334-12.248 2.41-18.569 2.427-2.225.01-4.45.04-6.675.072-1.425.007-2.85.012-4.276.016l-3.909.028c-4.73-.472-8.166-1.806-11.383-5.356C4.96 47.564 5.777 41.411 5.76 35.286c-.01-2.08-.04-4.16-.072-6.241a1779.6 1779.6 0 01-.016-4.002l-.028-3.656c.481-4.58 1.903-7.983 5.231-11.2C13.252 8.86 15.315 8.373 18 8l1-3zm5 9v2l-3.813-.688c-3.186-.42-3.186-.42-6.125.688C12.5 18.667 12.5 18.667 12 25h40c-.5-6.333-.5-6.333-2.063-9-3.296-1.702-6.361-.645-9.937 0v-2H24zm-4 19l-1 2 1 2 3-1v-3h-3zm10 0l1 4 3-1v-3h-4zm11 0l1 4 3-3-4-1zM20 43v4h3l-1-4h-2zm11 0l-1 4h4l-1-4h-2zm11 0l-1 4 4-1v-2l-3-1z"/></svg>