<?xml version="1.0" encoding="UTF-8"?>
<svg version="1.1" xmlns="http://www.w3.org/2000/svg" width="64" height="64">
<path d="M0 0 C3.13827866 1.55372539 4.38044142 3.61790778 5.8125 6.8125 C6.35013859 13.0849502 6.73288016 17.64953844 3 23 C-1.72112908 26.37223506 -6.38654277 26.75314721 -12 26 C-16.06662662 24.44728802 -17.57519602 23.63720598 -20 20 C-21.17845067 14.3041551 -21.61159546 8.38243455 -19 3 C-13.47545104 -1.44977307 -6.7301851 -0.86841098 0 0 Z M-14 6 C-15.70978928 9.86561054 -16.17445705 12.15943424 -15.3125 16.3125 C-14.15105206 19.2634657 -14.15105206 19.2634657 -11 21 C-6.86204464 21.30094221 -3.44651205 21.51860496 0 19 C1.42971606 14.71085182 1.81710428 10.8264684 -0.0625 6.625 C-4.11361997 3.22728648 -9.68069409 3.03819024 -14 6 Z " fill="#000000" transform="translate(54,34)"/>
<path d="M0 0 C3.34184795 1.87143485 3.89177905 2.29698133 5.125 5.75 C5.390625 8.84375 5.390625 8.84375 5.375 12.25 C5.38015625 13.3740625 5.3853125 14.498125 5.390625 15.65625 C5.13185864 18.67011704 4.87583662 20.31212623 3.125 22.75 C-0.17447297 25.10676641 -3.34262198 25.04873164 -7.3125 25.0625 C-8.98119141 25.08763672 -8.98119141 25.08763672 -10.68359375 25.11328125 C-14.2006333 24.71293281 -16.05324768 23.84601386 -18.875 21.75 C-21.5253171 17.4590104 -21.30148238 12.63677726 -20.875 7.75 C-19.82147084 3.71147155 -18.4389178 1.90995018 -14.875 -0.25 C-9.80744917 -1.93918361 -4.96497553 -1.91120397 0 0 Z M-14.875 5.75 C-16.30755612 10.04766835 -16.72811483 13.9489798 -14.75 18.125 C-12.13036006 20.39535461 -10.31952487 20.61492059 -6.875 20.75 C-3.59011048 20.43304356 -3.59011048 20.43304356 -0.875 18.75 C0.91188333 14.87841946 1.30543703 12.61937842 0.4375 8.4375 C-0.72394794 5.4865343 -0.72394794 5.4865343 -3.875 3.75 C-8.01295536 3.44905779 -11.42848795 3.23139504 -14.875 5.75 Z " fill="#000000" transform="translate(24.875,5.25)"/>
<path d="M0 0 C1.1240625 -0.00515625 2.248125 -0.0103125 3.40625 -0.015625 C6.42011704 0.24314136 8.06212623 0.49916338 10.5 2.25 C14.09698254 7.22601737 13.18453001 14.45887616 12.5 20.25 C10.69230834 23.79585671 8.25116794 24.99961069 4.5 26.25 C-1.13208383 26.80784449 -5.75396604 26.64002426 -10.5 23.25 C-13.87660371 18.52275481 -14.24377437 13.86851177 -13.5 8.25 C-11.58278146 2.97764901 -11.58278146 2.97764901 -8.796875 1.10546875 C-5.78103556 -0.01777757 -3.21267044 -0.01473702 0 0 Z M-6.5 6.25 C-8.96751239 9.95126859 -8.80721156 11.87223532 -8.5 16.25 C-7.82575833 18.60460678 -7.82575833 18.60460678 -6.5 20.25 C-2.20233165 21.68255612 1.6989798 22.10311483 5.875 20.125 C8.14535461 17.50536006 8.36492059 15.69452487 8.5 12.25 C8.02490784 8.9901469 8.02490784 8.9901469 6.5 6.25 C1.77643058 3.58542238 -1.71342406 3.91807839 -6.5 6.25 Z " fill="#000000" transform="translate(17.5,33.75)"/>
<path d="M0 0 C3.09103742 4.43048697 3.75412224 8.71095351 3 14 C2.12099847 17.2548535 1.17729552 20.18909393 -1.70703125 22.17578125 C-4.69569133 23.25006963 -7.26503081 23.30149722 -10.4375 23.3125 C-12.10619141 23.33763672 -12.10619141 23.33763672 -13.80859375 23.36328125 C-17.38106284 22.9566232 -19.21528916 22.26070612 -22 20 C-24.51245789 14.54156207 -24.33356984 8.54653269 -22.765625 2.84765625 C-21.69248619 0.25788758 -20.52474555 -0.81188445 -18 -2 C-11.94408863 -4.37910804 -5.2538914 -3.66550563 0 0 Z M-16.375 3.125 C-18.64535461 5.74463994 -18.86492059 7.55547513 -19 11 C-18.6039603 14.27242264 -18.6039603 14.27242264 -17 17 C-13.30971573 19.05969355 -11.41461001 19.07601184 -7.25 18.3125 C-3.7668361 17.26103436 -3.7668361 17.26103436 -2 14 C-1.69905779 9.86204464 -1.48139504 6.44651205 -4 3 C-8.29766835 1.56744388 -12.1989798 1.14688517 -16.375 3.125 Z " fill="#000000" transform="translate(57,7)"/>
</svg>
