<?xml version="1.0" encoding="UTF-8"?>
<svg version="1.1" xmlns="http://www.w3.org/2000/svg" width="64" height="64">
<path d="M0 0 C1.1034375 -0.00773437 2.206875 -0.01546875 3.34375 -0.0234375 C6.81936358 0.4153157 8.70172403 1.30518007 11.5 3.375 C14.1380915 7.64619576 14.04079725 12.50782474 13.5 17.375 C12.20514376 21.25956871 11.20348452 22.87251105 7.875 25.25 C2.26618169 27.1196061 -2.40000457 27.17681644 -7.9375 25.0625 C-11.53111311 22.6959743 -12.38082623 20.95100655 -13.25 16.75 C-13.70187122 12.22291978 -13.50892471 7.51534484 -11.5 3.375 C-7.73926186 0.37584504 -4.73800899 -0.03321034 0 0 Z " fill="#000000" transform="translate(46.5,33.625)"/>
<path d="M0 0 C1.82144531 -0.02513672 1.82144531 -0.02513672 3.6796875 -0.05078125 C7.39829694 0.34131702 9.25192905 0.94182397 12.125 3.3125 C14.63840558 8.77299684 14.45334913 14.76258737 12.89453125 20.46484375 C11.82922934 23.02264987 10.60225934 24.11140456 8.125 25.3125 C2.90042 27.05402667 -2.03693393 26.92518869 -7.25 25.1875 C-10.57848452 22.81001105 -11.58014376 21.19706871 -12.875 17.3125 C-13.61248865 11.59696293 -13.11427085 7.23139277 -9.875 2.3125 C-6.23103999 -0.11680667 -4.33587919 0.01375015 0 0 Z " fill="#000000" transform="translate(16.875,33.6875)"/>
<path d="M0 0 C3.125 1.6875 3.125 1.6875 5.125 4.6875 C6.30345067 10.3833449 6.73659546 16.30506545 4.125 21.6875 C0.36426186 24.68665496 -2.63699101 25.09571034 -7.375 25.0625 C-8.4784375 25.07023437 -9.581875 25.07796875 -10.71875 25.0859375 C-14.19436358 24.6471843 -16.07672403 23.75731993 -18.875 21.6875 C-21.5130915 17.41630424 -21.41579725 12.55467526 -20.875 7.6875 C-19.56691397 3.76324192 -18.5785504 2.17834912 -15.1875 -0.1875 C-9.79515632 -2.018862 -5.24779984 -2.0620253 0 0 Z " fill="#000000" transform="translate(24.875,5.3125)"/>
<path d="M0 0 C3.36444825 2.34728948 4.36990434 3.99541277 5.6875 7.875 C6.25203702 13.80263876 5.60115009 17.67205341 2.6875 22.875 C-0.66108203 25.18146039 -3.75885077 25.17365786 -7.75 25.1875 C-9.41869141 25.21263672 -9.41869141 25.21263672 -11.12109375 25.23828125 C-14.65171466 24.83638683 -16.51722139 24.0412141 -19.3125 21.875 C-20.41361689 18.57164934 -20.51476528 15.97667863 -20.5625 12.5 C-20.58828125 11.37851562 -20.6140625 10.25703125 -20.640625 9.1015625 C-20.27777359 5.53352359 -19.47263607 3.70922108 -17.3125 0.875 C-11.63073222 -1.89981682 -5.90443424 -2.00527955 0 0 Z " fill="#000000" transform="translate(54.3125,5.125)"/>
</svg>
