<?xml version="1.0" encoding="UTF-8"?>
<svg version="1.1" xmlns="http://www.w3.org/2000/svg" width="64" height="64">
<path d="M0 0 C3.7827442 2.57914377 5.91734031 4.93823828 8 9 C8.5546875 12.015625 8.5546875 12.015625 8.875 15.25 C9.4616575 19.73590692 10.24160838 22.96292084 12.625 26.8125 C15.34227144 31.2069004 15.77113407 33.85910621 15 39 C13.5625 41.875 13.5625 41.875 11 44 C8.67071166 44.64127832 6.42160963 45.056848 4.0234375 45.34765625 C1.8254464 45.80734918 1.8254464 45.80734918 0.8828125 47.921875 C0.59148438 48.60765625 0.30015625 49.2934375 0 50 C-5.0131325 54.38649093 -7.90570515 55.34578394 -14.45703125 55.2890625 C-19.24440451 54.74487568 -23.0049505 51.66061606 -26 48 C-26 47.34 -26 46.68 -26 46 C-26.60328125 45.91363281 -27.2065625 45.82726563 -27.828125 45.73828125 C-31.80492875 45.03913349 -34.40800056 44.49092636 -37.5625 41.875 C-39.43775307 38.12449385 -39.87589842 35.05563048 -39 31 C-37.85326088 28.7699944 -36.54548205 26.68447389 -35.22265625 24.5546875 C-33.75170409 21.48119641 -33.43327667 18.81742208 -33.0625 15.4375 C-32.29010721 9.20735061 -30.53148854 5.35246677 -26 1 C-18.25601596 -4.71579774 -8.24283766 -4.5254795 0 0 Z M-25.9140625 8.796875 C-27.98698692 13.00237634 -28.45110355 17.74404067 -29.12890625 22.34375 C-30.07493347 26.31451894 -31.72032091 28.66273783 -34 32 C-33.86654873 35.78020634 -33.86654873 35.78020634 -33 39 C-19.20812661 43.54320535 -4.79187339 43.54320535 9 39 C9.86654873 35.78020634 9.86654873 35.78020634 10 32 C9.37351563 31.08347656 8.74703125 30.16695312 8.1015625 29.22265625 C5.70456204 25.54695852 5.23478152 22.87957642 4.625 18.5625 C3.58268837 12.35779584 2.1352415 7.90383155 -3 4 C-10.81067521 -0.72751394 -20.39811022 1.84045111 -25.9140625 8.796875 Z M-19 47 C-14.80702467 50.1447315 -13.95154659 50.61894332 -9 50 C-7.68 49.01 -6.36 48.02 -5 47 C-9.62 47 -14.24 47 -19 47 Z " fill="#000000" transform="translate(44,6)"/>
<path d="M0 0 C1.32 0 2.64 0 4 0 C4 4.95 4 9.9 4 15 C2.68 15 1.36 15 0 15 C0 10.05 0 5.1 0 0 Z " fill="#000000" transform="translate(30,14)"/>
</svg>
