<?xml version="1.0" encoding="UTF-8"?>
<svg version="1.1" xmlns="http://www.w3.org/2000/svg" width="64" height="64">
<path d="M0 0 C5.76427424 4.06119322 8.64898336 7.2940645 10.02929688 14.43432617 C10.2601259 15.77186303 10.48406852 17.11060625 10.70117188 18.45043945 C11.29493851 22.01792806 11.93153282 24.84857564 13.9375 27.875 C16.40891188 32.05083387 16.45707372 34.14511143 15.75 38.9375 C12.64001047 42.87682007 8.71891914 43.82970848 3.94921875 44.62109375 C-22.35390151 47.22250125 -22.35390151 47.22250125 -31.0390625 40.56640625 C-32.80132214 38.1958828 -32.71293082 35.89320518 -32.609375 33.01953125 C-32.14412322 30.32410516 -30.80734064 28.43232929 -29.3125 26.1796875 C-27.82519353 23.04103341 -27.47982753 19.92344256 -26.9375 16.5 C-25.79293492 9.70419688 -23.70926042 5.27315425 -18.25 0.9375 C-13.03859144 -2.44287312 -5.70984979 -1.86668166 0 0 Z M-9.25 8.9375 C-10.49738223 9.96371107 -10.49738223 9.96371107 -10.3828125 12.15234375 C-10.38023438 13.05082031 -10.37765625 13.94929688 -10.375 14.875 C-10.37757812 15.77089844 -10.38015625 16.66679687 -10.3828125 17.58984375 C-10.40421413 19.95905555 -10.40421413 19.95905555 -9.25 21.9375 C-8.59 21.9375 -7.93 21.9375 -7.25 21.9375 C-5.98762269 19.41274538 -6.15143596 17.62549534 -6.1875 14.8125 C-6.19652344 13.90242188 -6.20554687 12.99234375 -6.21484375 12.0546875 C-6.22644531 11.35601562 -6.23804688 10.65734375 -6.25 9.9375 C-7.24 9.6075 -8.23 9.2775 -9.25 8.9375 Z " fill="#000000" transform="translate(40.25,6.0625)"/>
<path d="M0 0 C6.6 0 13.2 0 20 0 C17 4 17 4 14 5 C8.64033849 5.34578461 5.38091432 5.45162946 1 2 C0.67 1.34 0.34 0.68 0 0 Z " fill="#000000" transform="translate(22,54)"/>
</svg>
