<?xml version="1.0" encoding="UTF-8"?>
<svg version="1.1" xmlns="http://www.w3.org/2000/svg" width="64" height="64">
<path d="M0 0 C0.99 0.66 1.98 1.32 3 2 C7.32827623 2.47769255 7.32827623 2.47769255 11 0.4375 C13 -1 13 -1 15.8125 -0.9375 C19.87589389 0.25761585 22.54712404 1.49497235 26 4 C26.95356565 7.13314427 26.99593078 9.80060831 27.0625 13.0625 C27.65404585 16.08846115 27.65404585 16.08846115 29.84375 16.99609375 C30.5759375 17.32738281 31.308125 17.65867187 32.0625 18 C34.22265625 19.1875 34.22265625 19.1875 36 21 C37.2080166 25.85540973 37.2080166 30.14459027 36 35 C34.06063531 36.97772574 32.35335268 37.8683994 29.84375 39.00390625 C27.65404585 39.91153885 27.65404585 39.91153885 27.0625 42.9375 C27.02083984 44.9788479 27 47.02072704 27 49.0625 C25.58261974 53.22605452 23.07810553 54.18588346 19.32421875 56.21484375 C16.6837868 57.1068216 15.55811613 57.02654016 13 56 C12.1028125 55.195625 12.1028125 55.195625 11.1875 54.375 C8.92736092 52.66872832 8.92736092 52.66872832 5.4375 53.125 C2.04564437 53.6665366 2.04564437 53.6665366 0.4375 55.625 C-0.036875 56.07875 -0.51125 56.5325 -1 57 C-6.18567577 56.88214373 -9.88791003 54.98328096 -14 52 C-15.03029939 48.68832338 -15.00274941 45.84053427 -15.0625 42.375 C-15.62824279 38.97661485 -15.62824279 38.97661485 -17.84375 37.66796875 C-19.86773972 36.65953725 -21.87779655 35.7783024 -24 35 C-24.13489391 32.73078464 -24.23193995 30.4592933 -24.3125 28.1875 C-24.37050781 26.92292969 -24.42851562 25.65835937 -24.48828125 24.35546875 C-24 21 -24 21 -21.73046875 19.23828125 C-20.82941406 18.82964844 -19.92835937 18.42101562 -19 18 C-16.70135269 16.72347631 -16.70135269 16.72347631 -15 15 C-14.48811746 12.63107315 -14.48811746 12.63107315 -14.5625 10.0625 C-14.27090705 5.29287249 -14.27090705 5.29287249 -11.6875 2.5 C-10.800625 2.005 -9.91375 1.51 -9 1 C-8.34 0.566875 -7.68 0.13375 -7 -0.3125 C-4.30898349 -1.23753693 -2.69413023 -0.82896315 0 0 Z M-3 24 C-3.69847125 26.8396864 -3.69847125 29.1603136 -3 32 C-1.01078114 34.9838283 0.38502568 36.60276841 3.9375 37.4765625 C7.86063492 37.75890933 9.67112371 37.21925086 13 35 C15.21925086 31.67112371 15.75890933 29.86063492 15.4765625 25.9375 C14.60276841 22.38502568 12.9838283 20.98921886 10 19 C4.18336797 17.56929615 0.39185094 18.91222359 -3 24 Z " fill="#000000" transform="translate(26,4)"/>
</svg>
