<?xml version="1.0" encoding="UTF-8"?>
<svg version="1.1" xmlns="http://www.w3.org/2000/svg" width="64" height="64">
<path d="M0 0 C0.99 0.66 1.98 1.32 3 2 C7.32827623 2.47769255 7.32827623 2.47769255 11 0.4375 C13 -1 13 -1 15.8125 -0.9375 C19.87589389 0.25761585 22.54712404 1.49497235 26 4 C26.95356565 7.13314427 26.99593078 9.80060831 27.0625 13.0625 C27.65404585 16.08846115 27.65404585 16.08846115 29.84375 16.99609375 C30.5759375 17.32738281 31.308125 17.65867187 32.0625 18 C34.22265625 19.1875 34.22265625 19.1875 36 21 C37.2080166 25.85540973 37.2080166 30.14459027 36 35 C34.06063531 36.97772574 32.35335268 37.8683994 29.84375 39.00390625 C27.65404585 39.91153885 27.65404585 39.91153885 27.0625 42.9375 C27.02083984 44.9788479 27 47.02072704 27 49.0625 C25.58261974 53.22605452 23.07810553 54.18588346 19.32421875 56.21484375 C16.6837868 57.1068216 15.55811613 57.02654016 13 56 C12.1028125 55.195625 12.1028125 55.195625 11.1875 54.375 C8.92736092 52.66872832 8.92736092 52.66872832 5.4375 53.125 C2.04564437 53.6665366 2.04564437 53.6665366 0.4375 55.625 C-0.036875 56.07875 -0.51125 56.5325 -1 57 C-6.18567577 56.88214373 -9.88791003 54.98328096 -14 52 C-15.03029939 48.68832338 -15.00274941 45.84053427 -15.0625 42.375 C-15.62824279 38.97661485 -15.62824279 38.97661485 -17.84375 37.66796875 C-19.86773972 36.65953725 -21.87779655 35.7783024 -24 35 C-24.13489391 32.73078464 -24.23193995 30.4592933 -24.3125 28.1875 C-24.37050781 26.92292969 -24.42851562 25.65835937 -24.48828125 24.35546875 C-24 21 -24 21 -21.73046875 19.23828125 C-20.82941406 18.82964844 -19.92835937 18.42101562 -19 18 C-16.70135269 16.72347631 -16.70135269 16.72347631 -15 15 C-14.48811746 12.63107315 -14.48811746 12.63107315 -14.5625 10.0625 C-14.27090705 5.29287249 -14.27090705 5.29287249 -11.6875 2.5 C-10.800625 2.005 -9.91375 1.51 -9 1 C-8.34 0.566875 -7.68 0.13375 -7 -0.3125 C-4.30898349 -1.23753693 -2.69413023 -0.82896315 0 0 Z M15 4 C14.44441406 4.48855469 13.88882813 4.97710938 13.31640625 5.48046875 C10.59606264 7.26497746 9.15504408 7.3755891 5.9375 7.3125 C4.65166016 7.30669922 4.65166016 7.30669922 3.33984375 7.30078125 C1 7 1 7 -2 5 C-4.63434254 5.32126128 -6.62710097 5.81355048 -9 7 C-9.35461624 8.96049862 -9.35461624 8.96049862 -9.4375 11.25 C-9.81686562 15.23333901 -10.33043713 17.87016766 -13 21 C-16.1875 22.8125 -16.1875 22.8125 -19 24 C-19 26.64 -19 29.28 -19 32 C-18.071875 32.4125 -17.14375 32.825 -16.1875 33.25 C-12.9863293 35.00750548 -11.83159398 35.93831184 -10 39 C-9.69921875 41.47265625 -9.69921875 41.47265625 -9.6875 44.0625 C-9.58788146 46.67234053 -9.58788146 46.67234053 -9 49 C-6.11320156 51.23886732 -6.11320156 51.23886732 -3 52 C-2.566875 51.525625 -2.13375 51.05125 -1.6875 50.5625 C0.86051326 48.20322846 2.95349703 48.00344466 6.375 47.75 C10.25931296 48.01788365 11.77588728 48.99582182 15 51 C17.38222923 50.72774523 18.86246601 50.06876699 21 49 C21.31655664 47.07193659 21.31655664 47.07193659 21.375 44.8125 C21.79594187 40.25471564 22.91821955 37.50980551 26 34 C28.75 32.625 28.75 32.625 31 32 C31.34581904 27.96875257 31.34581904 27.96875257 31 24 C28.59140121 21.97170628 27.16955691 21 24 21 C22.24252386 16.49646738 21.80705592 12.82360189 22 8 C19.69 6.68 17.38 5.36 15 4 Z " fill="#000000" transform="translate(26,4)"/>
<path d="M0 0 C3.12578143 1.6720747 5.39281175 3.7856235 7 7 C7.51512617 11.09157355 7.94367269 15.23589546 5.953125 18.95703125 C3.55501226 21.85592636 1.60351712 23.79811835 -2.171875 24.2734375 C-9.98876369 24.58137554 -9.98876369 24.58137554 -13.5625 21.625 C-17.3057723 17.59378368 -17.39037018 14.90519941 -17.359375 9.55078125 C-16.78039966 5.44131496 -15.00085071 3.78650423 -12 1 C-8.27533151 -0.86233425 -4.05504687 -0.57130829 0 0 Z M-10.375 6.625 C-12.48706506 9.71186432 -12.61195145 11.3282913 -12 15 C-10.5 17.5 -10.5 17.5 -8 19 C-4.3282913 19.61195145 -2.71186432 19.48706506 0.375 17.375 C2.48706506 14.28813568 2.61195145 12.6717087 2 9 C0.5 6.5 0.5 6.5 -2 5 C-5.6717087 4.38804855 -7.28813568 4.51293494 -10.375 6.625 Z " fill="#000000" transform="translate(37,20)"/>
</svg>
