<?xml version="1.0" encoding="UTF-8"?>
<svg version="1.1" xmlns="http://www.w3.org/2000/svg" width="64" height="64">
<path d="M0 0 C4.98958532 4.98958532 4.21597672 11.23324854 4.25 17.8125 C4.270625 18.79798828 4.29125 19.78347656 4.3125 20.79882812 C4.34184975 26.26154975 4.20835945 30.34488033 1 35 C-7.29376985 40.5291799 -21.0992882 38.47157664 -30.65234375 37.47265625 C-34.13853712 36.77077705 -36.37509549 35.35568354 -39 33 C-41.89283834 28.33425254 -41.36805506 23.45176592 -41.375 18.125 C-41.39949219 17.14402344 -41.42398438 16.16304687 -41.44921875 15.15234375 C-41.47294393 9.29222333 -41.13962969 5.51728012 -37 1 C-28.38325333 -4.91752482 -9.33708512 -3.52342835 0 0 Z " fill="#000000" transform="translate(41,14)"/>
<path d="M0 0 C2.83286695 2.94567838 3.37700548 5.03276868 3.36328125 9.0625 C3.36263672 10.02414063 3.36199219 10.98578125 3.36132812 11.9765625 C3.34521484 12.97429688 3.32910156 13.97203125 3.3125 15 C3.31733398 16.49660156 3.31733398 16.49660156 3.32226562 18.0234375 C3.25936296 26.55532639 3.25936296 26.55532639 1 30 C-1.625 31 -1.625 31 -5 31 C-7.64 29.68 -10.28 28.36 -13 27 C-13 19.41 -13 11.82 -13 4 C-4.55172414 -0.82758621 -4.55172414 -0.82758621 0 0 Z " fill="#000000" transform="translate(61,17)"/>
</svg>
