<?xml version="1.0" encoding="UTF-8"?>
<svg version="1.1" xmlns="http://www.w3.org/2000/svg" width="64" height="64">
<path d="M0 0 C15.59563012 -0.29321984 15.59563012 -0.29321984 21.07421875 4.25 C21.54859375 4.86875 22.02296875 5.4875 22.51171875 6.125 C23.00671875 5.795 23.50171875 5.465 24.01171875 5.125 C27.72841814 3.63832025 30.50591435 3.80707902 34.51171875 4.125 C37.18603364 5.93663267 37.47092234 7.00261077 38.51171875 10.125 C38.76429201 13.41227925 38.74296494 16.70401724 38.76171875 20 C38.78234375 20.89847656 38.80296875 21.79695313 38.82421875 22.72265625 C38.85336381 27.65545822 38.82468999 31.17730062 35.51171875 35.125 C32.51171875 37.125 32.51171875 37.125 29.69921875 36.875 C26.55411474 36.13497553 23.55331418 35.21128408 20.51171875 34.125 C20.30546875 34.74375 20.09921875 35.3625 19.88671875 36 C17.88881467 39.08766995 16.05970135 39.23105142 12.51171875 40.125 C9.44364386 40.3782879 6.40079659 40.36254054 3.32421875 40.3125 C2.48286377 40.3031543 1.64150879 40.29380859 0.7746582 40.28417969 C-1.64704617 40.24781566 -4.06723189 40.19135159 -6.48828125 40.125 C-7.63554687 40.09535156 -8.7828125 40.06570312 -9.96484375 40.03515625 C-15.49034898 39.72310981 -19.26332277 39.02496167 -23.48828125 35.125 C-26.13826421 30.40072004 -25.81995435 25.45243449 -25.80078125 20.1875 C-25.82495117 18.86588867 -25.82495117 18.86588867 -25.84960938 17.51757812 C-25.85348659 12.34149151 -25.55558662 8.50209154 -22.48828125 4.125 C-16.24209363 -0.89120204 -7.62293514 0.27316229 0 0 Z M-17.10131836 9.39916992 C-18.79975247 11.51257086 -18.87409546 12.56664833 -18.88671875 15.25 C-18.89058594 16.03890625 -18.89445312 16.8278125 -18.8984375 17.640625 C-18.88683594 18.46046875 -18.87523437 19.2803125 -18.86328125 20.125 C-18.87488281 20.94484375 -18.88648438 21.7646875 -18.8984375 22.609375 C-18.89457031 23.39828125 -18.89070313 24.1871875 -18.88671875 25 C-18.88333496 25.71929687 -18.87995117 26.43859375 -18.87646484 27.1796875 C-18.3687738 29.72389019 -17.55837835 30.58820714 -15.48828125 32.125 C-13.55392117 32.69140748 -13.55392117 32.69140748 -11.41796875 32.79296875 C-10.62229492 32.85661621 -9.82662109 32.92026367 -9.00683594 32.98583984 C-4.87280784 33.21426133 -0.75369049 33.3885204 3.38671875 33.4375 C4.64742187 33.48100586 4.64742187 33.48100586 5.93359375 33.52539062 C10.54266284 33.63069199 10.54266284 33.63069199 14.5625 31.671875 C16.0042554 27.80346132 15.90549165 24.15540325 15.82421875 20.0625 C15.82744141 19.24716797 15.83066406 18.43183594 15.83398438 17.59179688 C15.839201 12.57162639 15.839201 12.57162639 13.51171875 8.125 C6.90324979 5.50569795 -11.31174145 4.82586859 -17.10131836 9.39916992 Z M22.51171875 14.125 C22.51171875 18.085 22.51171875 22.045 22.51171875 26.125 C26.77544685 28.48410353 26.77544685 28.48410353 31.51171875 29.125 C31.51171875 23.185 31.51171875 17.245 31.51171875 11.125 C27.81753674 11.125 25.73335697 12.40679295 22.51171875 14.125 Z " fill="#000000" transform="translate(25.48828125,11.875)"/>
</svg>
